<svg width="24" height="24" viewBox="0 0 24 24" fill="none" xmlns="http://www.w3.org/2000/svg">
<path d="M7.35 21C7.275 21 7.125 21 7.05 20.925C6.75 20.85 6.6 20.55 6.6 20.25V17.4H5.55C3.75 17.4 2.25 15.9 2.25 14.1V7.20003C2.25 5.40002 3.75 3.90002 5.55 3.90002H18.45C20.25 3.90002 21.75 5.40002 21.75 7.20003V14.1C21.75 15.9 20.25 17.4 18.45 17.4H12.225L7.8 20.85C7.725 21 7.575 21 7.35 21ZM5.55 5.40002C4.575 5.40002 3.75 6.22503 3.75 7.20003V14.1C3.75 15.075 4.575 15.9 5.55 15.9H6.675C7.5 15.9 8.175 16.575 8.175 17.4V18.75L11.4 16.2C11.7 15.975 12 15.9 12.3 15.9H18.525C19.5 15.9 20.325 15.075 20.325 14.1V7.20003C20.325 6.22503 19.5 5.40002 18.525 5.40002H5.55Z" fill="#3E5CF2"/>
<path d="M11.9995 12C11.6995 12 11.4745 11.85 11.3245 11.625C11.0995 11.25 11.2495 10.8 11.6245 10.575L17.2495 7.57495C17.6245 7.34995 18.0745 7.49995 18.2995 7.87495C18.5245 8.24995 18.3745 8.69995 17.9995 8.92495L12.3745 11.925C12.2245 11.925 12.1495 12 11.9995 12Z" fill="#3E5CF2"/>
<path d="M11.9995 12C11.8495 12 11.7745 12 11.6245 11.925L5.99947 8.92495C5.62447 8.69995 5.47447 8.24995 5.69947 7.87495C5.92447 7.49995 6.37447 7.34995 6.74947 7.57495L12.3745 10.575C12.7495 10.8 12.8995 11.25 12.6745 11.625C12.5245 11.85 12.2995 12 11.9995 12Z" fill="#3E5CF2"/>
</svg>
