<svg width="70" height="70" viewBox="0 0 70 70" fill="none" xmlns="http://www.w3.org/2000/svg">
<g clip-path="url(#clip0)">
<path d="M26.2002 38.5L29.4002 35.2L35.0002 32.2L46.4002 30.6L52.1002 32.4L59.0002 37.1L50.0002 46.1L45.2002 43.3L40.4002 43.7L35.4002 47.4L31.9002 41.5L26.2002 38.5Z" fill="#FFE79F"/>
<path d="M59 37.1L50 46.1L52.8 50.6L51.7 57.4L50 59.6L59 68.6L63.7 61.7L65.5 52.8L63.9 44.5L59 37.1Z" fill="#F8ABA1"/>
<path d="M55.1002 27.8C60.5678 27.8 65.0002 23.3676 65.0002 17.9C65.0002 12.4324 60.5678 8 55.1002 8C49.6326 8 45.2002 12.4324 45.2002 17.9C45.2002 23.3676 49.6326 27.8 55.1002 27.8Z" fill="#FFC20E"/>
<path d="M36.1002 27.4L33.7002 18.5L42.7002 20.4L36.1002 27.4Z" fill="#3E5CF2"/>
<path d="M16.9 23.9C23.7483 23.9 29.3 21.1689 29.3 17.8C29.3 14.4311 23.7483 11.7 16.9 11.7C10.0517 11.7 4.5 14.4311 4.5 17.8C4.5 21.1689 10.0517 23.9 16.9 23.9Z" stroke="#231E5A" stroke-width="3" stroke-miterlimit="10" stroke-linecap="round" stroke-linejoin="round"/>
<path d="M24.7001 65.1C22.6001 65.9 19.9001 66.4 17.0001 66.4C10.1001 66.4 4.6001 63.7 4.6001 60.3" stroke="#231E5A" stroke-width="3" stroke-miterlimit="10" stroke-linecap="round" stroke-linejoin="round"/>
<path d="M29.4 23.9C29.4 27.3 23.8 30 17 30C16.1 30 15.3 30 14.5 29.9" stroke="#231E5A" stroke-width="3" stroke-miterlimit="10" stroke-linecap="round" stroke-linejoin="round"/>
<path d="M9.4 28.8C6.4 27.7 4.5 25.9 4.5 24" stroke="#231E5A" stroke-width="3" stroke-miterlimit="10" stroke-linecap="round" stroke-linejoin="round"/>
<path d="M29.4 30C29.4 33.4 23.8 36.1 17 36.1C16.1 36.1 15.3 36.1 14.5 36" stroke="#231E5A" stroke-width="3" stroke-miterlimit="10" stroke-linecap="round" stroke-linejoin="round"/>
<path d="M9.4 34.8C6.4 33.7 4.5 31.9 4.5 30" stroke="#231E5A" stroke-width="3" stroke-miterlimit="10" stroke-linecap="round" stroke-linejoin="round"/>
<path d="M24.5 40.9C22.4 41.7 19.8 42.1 17 42.1C16.1 42.1 15.3 42.1 14.5 42" stroke="#231E5A" stroke-width="3" stroke-miterlimit="10" stroke-linecap="round" stroke-linejoin="round"/>
<path d="M9.4 40.9C6.4 39.8 4.5 38 4.5 36.1" stroke="#231E5A" stroke-width="3" stroke-miterlimit="10" stroke-linecap="round" stroke-linejoin="round"/>
<path d="M21.6 47.7C20.2 48 18.6 48.1 17 48.1C16.1 48.1 15.3 48.1 14.5 48" stroke="#231E5A" stroke-width="3" stroke-miterlimit="10" stroke-linecap="round" stroke-linejoin="round"/>
<path d="M9.4 47C6.4 45.9 4.5 44.1 4.5 42.2" stroke="#231E5A" stroke-width="3" stroke-miterlimit="10" stroke-linecap="round" stroke-linejoin="round"/>
<path d="M20.9999 53.9C19.6999 54.1 18.3999 54.2 16.8999 54.2C15.9999 54.2 15.1999 54.2 14.3999 54.1" stroke="#231E5A" stroke-width="3" stroke-miterlimit="10" stroke-linecap="round" stroke-linejoin="round"/>
<path d="M9.4 53C6.4 51.9 4.5 50.1 4.5 48.2" stroke="#231E5A" stroke-width="3" stroke-miterlimit="10" stroke-linecap="round" stroke-linejoin="round"/>
<path d="M22.0999 59.8C20.4999 60.2 18.7999 60.3 16.8999 60.3C15.9999 60.3 15.1999 60.3 14.3999 60.2" stroke="#231E5A" stroke-width="3" stroke-miterlimit="10" stroke-linecap="round" stroke-linejoin="round"/>
<path d="M9.4 59.1C6.4 58 4.5 56.2 4.5 54.3" stroke="#231E5A" stroke-width="3" stroke-miterlimit="10" stroke-linecap="round" stroke-linejoin="round"/>
<path d="M4.5 17.8V61" stroke="#231E5A" stroke-width="3" stroke-miterlimit="10" stroke-linecap="round" stroke-linejoin="round"/>
<path d="M29.3999 17.8V35.2" stroke="#231E5A" stroke-width="3" stroke-miterlimit="10" stroke-linecap="round" stroke-linejoin="round"/>
<path d="M43.2998 57.3C45.7851 57.3 47.7998 55.2853 47.7998 52.8C47.7998 50.3148 45.7851 48.3 43.2998 48.3C40.8145 48.3 38.7998 50.3148 38.7998 52.8C38.7998 55.2853 40.8145 57.3 43.2998 57.3Z" stroke="#231E5A" stroke-width="3" stroke-miterlimit="10" stroke-linecap="round" stroke-linejoin="round"/>
<path d="M43.2998 30.6V43.3" stroke="#231E5A" stroke-width="3" stroke-miterlimit="10" stroke-linecap="round" stroke-linejoin="round"/>
<path d="M52.7998 52.8H65.4998" stroke="#231E5A" stroke-width="3" stroke-miterlimit="10" stroke-linecap="round" stroke-linejoin="round"/>
<path d="M21 52.8H33.7" stroke="#231E5A" stroke-width="3" stroke-miterlimit="10" stroke-linecap="round" stroke-linejoin="round"/>
<path d="M59 37.1L50 46.1" stroke="#231E5A" stroke-width="3" stroke-miterlimit="10" stroke-linecap="round" stroke-linejoin="round"/>
<path d="M36.5 59.6L27.5 68.6C23.5 64.6 21 59 21 52.9C21 40.6 31 30.6 43.3 30.6C55.6 30.6 65.6 40.6 65.6 52.9C65.6 59 63.1 64.6 59.1 68.6L50.1 59.6C51.8 57.9 52.9 55.5 52.9 52.8C52.9 47.5 48.6 43.2 43.3 43.2C38 43.2 33.7 47.5 33.7 52.8C33.7 55.5 34.8 57.9 36.5 59.6Z" stroke="#231E5A" stroke-width="3" stroke-miterlimit="10" stroke-linecap="round" stroke-linejoin="round"/>
<path d="M27.5 37.1L36.5 46.1" stroke="#231E5A" stroke-width="3" stroke-miterlimit="10" stroke-linecap="round" stroke-linejoin="round"/>
<path d="M58.8002 46.9L43.2002 52.8" stroke="#231E5A" stroke-width="3" stroke-miterlimit="10" stroke-linecap="round" stroke-linejoin="round"/>
<path d="M59.1002 13.5L50.7002 21.8" stroke="white" stroke-width="3" stroke-miterlimit="10" stroke-linecap="round" stroke-linejoin="round"/>
<path d="M50.8 15.8C52.0703 15.8 53.1 14.7703 53.1 13.5C53.1 12.2298 52.0703 11.2 50.8 11.2C49.5297 11.2 48.5 12.2298 48.5 13.5C48.5 14.7703 49.5297 15.8 50.8 15.8Z" fill="white"/>
<path d="M59.0998 24.1C60.3701 24.1 61.3998 23.0703 61.3998 21.8C61.3998 20.5297 60.3701 19.5 59.0998 19.5C57.8295 19.5 56.7998 20.5297 56.7998 21.8C56.7998 23.0703 57.8295 24.1 59.0998 24.1Z" fill="white"/>
<path d="M45.9396 3.88495L34.3862 -0.0324707L30.4688 11.5209L42.0222 15.4383L45.9396 3.88495Z" fill="#F4422C"/>
</g>
<defs>
<clipPath id="clip0">
<rect width="70" height="70" fill="white"/>
</clipPath>
</defs>
</svg>
