<svg width="70" height="70" viewBox="0 0 70 70" fill="none" xmlns="http://www.w3.org/2000/svg">
<path d="M42.0996 20.5H59.3996V30.8H12.6996C9.89961 30.8 7.59961 28.5 7.59961 25.7C7.59961 22.9 9.89961 20.6 12.6996 20.6" stroke="#231E5A" stroke-width="3" stroke-miterlimit="10" stroke-linecap="round" stroke-linejoin="round"/>
<path d="M22.9004 20.5H26.0004" stroke="#231E5A" stroke-width="3" stroke-miterlimit="10" stroke-linecap="round" stroke-linejoin="round"/>
<path d="M59.5 42.2V30.8" stroke="#231E5A" stroke-width="3" stroke-miterlimit="10" stroke-linecap="round" stroke-linejoin="round"/>
<path d="M7.5 26.3V64C7.5 66.5 9.5 68.5 12 68.5H54.9C57.4 68.5 59.4 66.5 59.4 64V57.8" stroke="#231E5A" stroke-width="3" stroke-miterlimit="10" stroke-linecap="round" stroke-linejoin="round"/>
<path d="M50.3996 57.8H62.4996V42.2H50.3996C46.0996 42.2 42.5996 45.7 42.5996 50C42.5996 54.3 46.0996 57.8 50.3996 57.8Z" stroke="#231E5A" stroke-width="3" stroke-miterlimit="10" stroke-linecap="round" stroke-linejoin="round"/>
<path d="M49.8996 52.3C51.1699 52.3 52.1996 51.2703 52.1996 50C52.1996 48.7298 51.1699 47.7 49.8996 47.7C48.6294 47.7 47.5996 48.7298 47.5996 50C47.5996 51.2703 48.6294 52.3 49.8996 52.3Z" fill="#231E5A"/>
<path d="M47.0996 17.3C51.794 17.3 55.5996 13.4944 55.5996 8.79999C55.5996 4.10557 51.794 0.299988 47.0996 0.299988C42.4052 0.299988 38.5996 4.10557 38.5996 8.79999C38.5996 13.4944 42.4052 17.3 47.0996 17.3Z" fill="#3E5CF2"/>
<path d="M46.3002 29.4H20.7002L27.5002 22.5L33.5002 16.6L46.3002 29.4Z" fill="#F4422C"/>
<path d="M16.5 24.1L12 6.79999L29.4 10.5L16.5 24.1Z" fill="#FFC20E"/>
</svg>
