<svg width="70" height="70" viewBox="0 0 70 70" fill="none" xmlns="http://www.w3.org/2000/svg">
<path d="M42.1001 20.5H59.4001V30.8H12.7001C9.9001 30.8 7.6001 28.5 7.6001 25.7C7.6001 22.9 9.9001 20.6 12.7001 20.6" stroke="white" stroke-width="3" stroke-miterlimit="10" stroke-linecap="round" stroke-linejoin="round"/>
<path d="M22.8999 20.5H25.9999" stroke="white" stroke-width="3" stroke-miterlimit="10" stroke-linecap="round" stroke-linejoin="round"/>
<path d="M59.5 42.2V30.8" stroke="white" stroke-width="3" stroke-miterlimit="10" stroke-linecap="round" stroke-linejoin="round"/>
<path d="M7.5 26.3V64C7.5 66.5 9.5 68.5 12 68.5H54.9C57.4 68.5 59.4 66.5 59.4 64V57.8" stroke="white" stroke-width="3" stroke-miterlimit="10" stroke-linecap="round" stroke-linejoin="round"/>
<path d="M50.4001 57.8H62.5001V42.2H50.4001C46.1001 42.2 42.6001 45.7 42.6001 50C42.6001 54.3 46.1001 57.8 50.4001 57.8Z" stroke="white" stroke-width="3" stroke-miterlimit="10" stroke-linecap="round" stroke-linejoin="round"/>
<path d="M49.9001 52.3C51.1704 52.3 52.2001 51.2703 52.2001 50C52.2001 48.7298 51.1704 47.7 49.9001 47.7C48.6298 47.7 47.6001 48.7298 47.6001 50C47.6001 51.2703 48.6298 52.3 49.9001 52.3Z" fill="white"/>
<path d="M47.1001 17.3C51.7945 17.3 55.6001 13.4944 55.6001 8.79999C55.6001 4.10557 51.7945 0.299988 47.1001 0.299988C42.4057 0.299988 38.6001 4.10557 38.6001 8.79999C38.6001 13.4944 42.4057 17.3 47.1001 17.3Z" fill="white"/>
<path d="M46.3002 29.4H20.7002L27.5002 22.5L33.5002 16.6L46.3002 29.4Z" fill="#F4422C"/>
<path d="M16.5 24.1L12 6.79999L29.4 10.5L16.5 24.1Z" fill="#FFC20E"/>
</svg>
