<svg width="18" height="18" viewBox="0 0 18 18" fill="none" xmlns="http://www.w3.org/2000/svg">
<path d="M8.99986 0.799978C9.1313 0.796316 9.26197 0.821245 9.38283 0.873043C9.50369 0.924841 9.61186 1.00227 9.69986 1.09998L16.8999 8.29998C16.9946 8.39029 17.07 8.4989 17.1216 8.61922C17.1731 8.73954 17.1997 8.86908 17.1997 8.99998C17.1997 9.13088 17.1731 9.26041 17.1216 9.38074C17.07 9.50106 16.9946 9.60967 16.8999 9.69998L9.69986 16.9C9.60955 16.9947 9.50094 17.0702 9.38062 17.1217C9.26029 17.1733 9.13076 17.1998 8.99986 17.1998C8.86896 17.1998 8.73942 17.1733 8.6191 17.1217C8.49877 17.0702 8.39017 16.9947 8.29986 16.9C8.2051 16.8097 8.12967 16.7011 8.07812 16.5807C8.02658 16.4604 8.00001 16.3309 8.00001 16.2C8.00001 16.0691 8.02658 15.9395 8.07812 15.8192C8.12967 15.6989 8.2051 15.5903 8.29986 15.5L14.7999 8.99998L8.29986 2.49998C8.2051 2.40967 8.12967 2.30106 8.07812 2.18074C8.02658 2.06041 8.00001 1.93088 8.00001 1.79998C8.00001 1.66908 8.02658 1.53954 8.07812 1.41922C8.12967 1.2989 8.2051 1.19029 8.29986 1.09998C8.38785 1.00227 8.49602 0.924841 8.61688 0.873043C8.73775 0.821245 8.86841 0.796316 8.99986 0.799978Z" fill="#231E5A"/>
<path d="M1.79976 8.00001L14.9998 8.00001C15.1332 7.99199 15.2668 8.01236 15.3917 8.05978C15.5167 8.10719 15.6302 8.18058 15.7247 8.27509C15.8192 8.3696 15.8926 8.48308 15.94 8.60804C15.9874 8.733 16.0078 8.86659 15.9998 9.00001C16.0078 9.13342 15.9874 9.26702 15.94 9.39198C15.8926 9.51694 15.8192 9.63042 15.7247 9.72492C15.6302 9.81943 15.5167 9.89282 15.3917 9.94024C15.2668 9.98765 15.1332 10.008 14.9998 10L1.79976 10C1.66635 10.008 1.53275 9.98765 1.40779 9.94024C1.28283 9.89282 1.16935 9.81943 1.07484 9.72492C0.980335 9.63042 0.90695 9.51694 0.859532 9.39198C0.812115 9.26702 0.791742 9.13342 0.799762 9.00001C0.791742 8.86659 0.812115 8.733 0.859532 8.60804C0.90695 8.48308 0.980335 8.3696 1.07484 8.27509C1.16935 8.18058 1.28283 8.10719 1.40779 8.05978C1.53275 8.01236 1.66635 7.99199 1.79976 8.00001Z" fill="#231E5A"/>
</svg>
