<svg width="18" height="18" viewBox="0 0 18 18" fill="none" xmlns="http://www.w3.org/2000/svg">
<path d="M9.00014 17.2C8.8687 17.2037 8.73803 17.1788 8.61717 17.127C8.49631 17.0752 8.38814 16.9977 8.30014 16.9L1.10014 9.70002C1.00539 9.60971 0.929953 9.5011 0.878411 9.38078C0.826869 9.26046 0.800293 9.13092 0.800293 9.00002C0.800293 8.86912 0.826869 8.73959 0.878411 8.61926C0.929953 8.49894 1.00539 8.39033 1.10014 8.30002L8.30014 1.10002C8.39045 1.00526 8.49906 0.929831 8.61938 0.878289C8.73971 0.826747 8.86924 0.800171 9.00014 0.800171C9.13104 0.800171 9.26058 0.826747 9.3809 0.878289C9.50123 0.929831 9.60983 1.00526 9.70014 1.10002C9.7949 1.19033 9.87033 1.29894 9.92188 1.41926C9.97342 1.53959 9.99999 1.66912 9.99999 1.80002C9.99999 1.93092 9.97342 2.06046 9.92188 2.18078C9.87033 2.3011 9.7949 2.40971 9.70014 2.50002L3.20014 9.00002L9.70014 15.5C9.7949 15.5903 9.87033 15.6989 9.92188 15.8193C9.97342 15.9396 9.99999 16.0691 9.99999 16.2C9.99999 16.3309 9.97342 16.4605 9.92188 16.5808C9.87033 16.7011 9.7949 16.8097 9.70014 16.9C9.61215 16.9977 9.50398 17.0752 9.38312 17.127C9.26225 17.1788 9.13159 17.2037 9.00014 17.2Z" fill="#8484B7"/>
<path d="M16.2002 9.99999H3.00024C2.86682 10.008 2.73323 9.98764 2.60827 9.94022C2.48331 9.89281 2.36983 9.81942 2.27532 9.72491C2.18081 9.6304 2.10743 9.51692 2.06001 9.39196C2.01259 9.267 1.99222 9.13341 2.00024 8.99999C1.99222 8.86658 2.01259 8.73298 2.06001 8.60802C2.10743 8.48306 2.18081 8.36958 2.27532 8.27508C2.36983 8.18057 2.48331 8.10718 2.60827 8.05976C2.73323 8.01235 2.86682 7.99197 3.00024 7.99999H16.2002C16.3337 7.99197 16.4672 8.01235 16.5922 8.05976C16.7172 8.10718 16.8306 8.18057 16.9252 8.27508C17.0197 8.36958 17.0931 8.48306 17.1405 8.60802C17.1879 8.73298 17.2083 8.86658 17.2002 8.99999C17.2083 9.13341 17.1879 9.267 17.1405 9.39196C17.0931 9.51692 17.0197 9.6304 16.9252 9.72491C16.8306 9.81942 16.7172 9.89281 16.5922 9.94022C16.4672 9.98764 16.3337 10.008 16.2002 9.99999Z" fill="#8484B7"/>
</svg>
