<svg id="_16_buyed_ligh" data-name="16_buyed ligh" xmlns="http://www.w3.org/2000/svg" width="16" height="16" viewBox="0 0 16 16">
  <g id="Сгруппировать_538" data-name="Сгруппировать 538" transform="translate(8 1.1)">
    <rect id="Прямоугольник_658" data-name="Прямоугольник 658" width="6.9" height="6.9" fill="none"/>
  </g>
  <g id="Сгруппировать_539" data-name="Сгруппировать 539">
    <rect id="Прямоугольник_659" data-name="Прямоугольник 659" width="16" height="16" fill="none"/>
  </g>
  <g id="Сгруппировать_540" data-name="Сгруппировать 540" transform="translate(1.1 1.1)">
    <rect id="Прямоугольник_660" data-name="Прямоугольник 660" width="13.7" height="13.7" fill="none"/>
  </g>
  <g id="Сгруппировать_543" data-name="Сгруппировать 543" transform="translate(2.5 1.7)">
    <g id="Сгруппировать_541" data-name="Сгруппировать 541" transform="translate(0 3.1)">
      <path id="Контур_575" data-name="Контур 575" d="M12.5,14.3h-9a.908.908,0,0,1-.7-.3,1.08,1.08,0,0,1-.3-.7l.3-7.5a1.075,1.075,0,0,1,1-1h8.3a1,1,0,0,1,1,1l.3,7.5a.908.908,0,0,1-.3.7A.713.713,0,0,1,12.5,14.3Zm-7.9-2h6.8l-.2-5.5H4.8Z" transform="translate(-2.5 -4.8)" fill="#f4422c"/>
    </g>
    <g id="Сгруппировать_542" data-name="Сгруппировать 542" transform="translate(2.8)">
      <path id="Контур_576" data-name="Контур 576" d="M10,6.8a.945.945,0,0,1-1-1V4.5a.817.817,0,0,0-.9-.8.789.789,0,0,0-.8.8V5.8a.945.945,0,0,1-1,1,.945.945,0,0,1-1-1V4.5A2.8,2.8,0,0,1,8.1,1.7,2.883,2.883,0,0,1,11,4.5V5.8A1,1,0,0,1,10,6.8Z" transform="translate(-5.3 -1.7)" fill="#f4422c"/>
    </g>
  </g>
</svg>
