<svg id="_16_cancel_white" data-name="16_cancel white" xmlns="http://www.w3.org/2000/svg" width="16" height="16" viewBox="0 0 16 16">
  <g id="Сгруппировать_448" data-name="Сгруппировать 448">
    <rect id="Прямоугольник_584" data-name="Прямоугольник 584" width="6.9" height="6.9" transform="translate(8 1.1)" fill="none"/>
  </g>
  <g id="Сгруппировать_449" data-name="Сгруппировать 449">
    <rect id="Прямоугольник_585" data-name="Прямоугольник 585" width="16" height="16" fill="none"/>
  </g>
  <g id="Сгруппировать_450" data-name="Сгруппировать 450">
    <rect id="Прямоугольник_586" data-name="Прямоугольник 586" width="13.7" height="13.7" transform="translate(1.1 1.1)" fill="none"/>
  </g>
  <g id="Сгруппировать_451" data-name="Сгруппировать 451">
    <path id="Контур_547" data-name="Контур 547" d="M3.6,13.9a1.5,1.5,0,0,1-1.1-.4,1.45,1.45,0,0,1,0-2.1l8.9-8.9a1.45,1.45,0,0,1,2.1,0,1.45,1.45,0,0,1,0,2.1L4.6,13.5A1.284,1.284,0,0,1,3.6,13.9Z" fill="#fff"/>
  </g>
  <g id="Сгруппировать_452" data-name="Сгруппировать 452">
    <path id="Контур_548" data-name="Контур 548" d="M12.5,13.9a1.5,1.5,0,0,1-1.1-.4L2.5,4.6a1.45,1.45,0,0,1,0-2.1,1.45,1.45,0,0,1,2.1,0l8.9,8.9a1.45,1.45,0,0,1,0,2.1A1.433,1.433,0,0,1,12.5,13.9Z" fill="#fff"/>
  </g>
</svg>
