<svg id="_24_bag_white" data-name="24_bag white" xmlns="http://www.w3.org/2000/svg" width="24" height="24" viewBox="0 0 24 24">
  <g id="Сгруппировать_553" data-name="Сгруппировать 553">
    <rect id="Прямоугольник_684" data-name="Прямоугольник 684" width="24" height="24" fill="none"/>
  </g>
  <g id="Сгруппировать_554" data-name="Сгруппировать 554">
    <rect id="Прямоугольник_685" data-name="Прямоугольник 685" width="20.6" height="20.6" transform="translate(1.7 1.7)" fill="none"/>
  </g>
  <g id="Сгруппировать_557" data-name="Сгруппировать 557">
    <g id="Сгруппировать_555" data-name="Сгруппировать 555">
      <path id="Контур_581" data-name="Контур 581" d="M19.2,22.1H4.8a1.606,1.606,0,0,1-1.1-.5,1.5,1.5,0,0,1-.4-1.1L3.8,8.4A1.453,1.453,0,0,1,5.3,7H18.7a1.453,1.453,0,0,1,1.5,1.4l.5,12.1a1.5,1.5,0,0,1-.4,1.1A1.606,1.606,0,0,1,19.2,22.1Zm-12.8-3H17.6L17.3,10H6.7Z" fill="#fff"/>
    </g>
    <g id="Сгруппировать_556" data-name="Сгруппировать 556">
      <path id="Контур_582" data-name="Контур 582" d="M15.2,10a1.538,1.538,0,0,1-1.5-1.5V6.4a1.5,1.5,0,0,0-3,0V8.5a1.5,1.5,0,0,1-3,0V6.4a4.5,4.5,0,0,1,9,0V8.5A1.538,1.538,0,0,1,15.2,10Z" fill="#fff"/>
    </g>
  </g>
</svg>
