<svg id="_24_eye_red_active" data-name="24_eye red_active" xmlns="http://www.w3.org/2000/svg" width="24" height="24" viewBox="0 0 24 24">
  <g id="Сгруппировать_431" data-name="Сгруппировать 431">
    <rect id="Прямоугольник_563" data-name="Прямоугольник 563" width="24" height="24" fill="none"/>
  </g>
  <g id="Сгруппировать_432" data-name="Сгруппировать 432">
    <rect id="Прямоугольник_564" data-name="Прямоугольник 564" width="20.6" height="20.6" transform="translate(1.7 1.7)" fill="none"/>
  </g>
  <g id="Сгруппировать_433" data-name="Сгруппировать 433">
    <path id="Контур_543" data-name="Контур 543" d="M12,20.9A10.117,10.117,0,0,1,2,12.3v-.4a10.114,10.114,0,0,1,20,0v.4A10.208,10.208,0,0,1,12,20.9ZM5,12a7.089,7.089,0,0,0,7,5.9A7.169,7.169,0,0,0,19,12a7.089,7.089,0,0,0-7-5.9A7.169,7.169,0,0,0,5,12Z" fill="#ee442c"/>
  </g>
  <g id="Сгруппировать_434" data-name="Сгруппировать 434">
    <circle id="Эллипс_80" data-name="Эллипс 80" cx="3" cy="3" r="3" transform="translate(9 9)" fill="#ee442c"/>
    <path id="Контур_544" data-name="Контур 544" d="M12,16.5A4.5,4.5,0,1,1,16.5,12,4.481,4.481,0,0,1,12,16.5Zm0-6A1.5,1.5,0,1,0,13.5,12,1.538,1.538,0,0,0,12,10.5Z" fill="#ee442c"/>
  </g>
</svg>
