<svg id="_24_eye_yellow_diactive" data-name="24_eye yellow_diactive" xmlns="http://www.w3.org/2000/svg" width="24" height="24" viewBox="0 0 24 24">
  <g id="Сгруппировать_414" data-name="Сгруппировать 414">
    <rect id="Прямоугольник_559" data-name="Прямоугольник 559" width="24" height="24" fill="none"/>
  </g>
  <g id="Сгруппировать_415" data-name="Сгруппировать 415">
    <rect id="Прямоугольник_560" data-name="Прямоугольник 560" width="20.6" height="20.6" transform="translate(1.7 1.7)" fill="none"/>
  </g>
  <g id="Сгруппировать_416" data-name="Сгруппировать 416">
    <path id="Контур_539" data-name="Контур 539" d="M12,20.5A10.117,10.117,0,0,1,2,11.9v-.4a10.114,10.114,0,0,1,20,0v.4A10.117,10.117,0,0,1,12,20.5ZM5,11.7a7.1,7.1,0,0,0,14,0,7.089,7.089,0,0,0-7-5.9A7.169,7.169,0,0,0,5,11.7Z" fill="#ffc114"/>
  </g>
  <g id="Сгруппировать_417" data-name="Сгруппировать 417">
    <path id="Контур_540" data-name="Контур 540" d="M12,16.2a4.5,4.5,0,1,1,0-9,1.5,1.5,0,1,1,0,3,1.5,1.5,0,1,0,1.5,1.5,1.5,1.5,0,0,1,3,0A4.481,4.481,0,0,1,12,16.2Z" fill="#ffc114"/>
  </g>
</svg>
