<svg id="_24_heart_yellow_diactive" data-name="24_heart yellow_diactive" xmlns="http://www.w3.org/2000/svg" width="24" height="24" viewBox="0 0 24 24">
  <g id="Сгруппировать_419" data-name="Сгруппировать 419">
    <rect id="Прямоугольник_561" data-name="Прямоугольник 561" width="24" height="24" fill="none"/>
  </g>
  <g id="Сгруппировать_420" data-name="Сгруппировать 420">
    <rect id="Прямоугольник_562" data-name="Прямоугольник 562" width="20.6" height="20.6" transform="translate(1.7 1.7)" fill="none"/>
  </g>
  <g id="Сгруппировать_421" data-name="Сгруппировать 421">
    <path id="Контур_541" data-name="Контур 541" d="M12,21a2.663,2.663,0,0,1-1.2-.3c-2.5-1.3-8.2-5-8.7-10.6A2.769,2.769,0,0,1,2,9.2,6.231,6.231,0,0,1,8.2,3,6.456,6.456,0,0,1,12,4.3,5.846,5.846,0,0,1,15.8,3,6.231,6.231,0,0,1,22,9.2a3.751,3.751,0,0,1-.1,1h0c-.4,5.2-6.2,9.1-8.7,10.5A2.375,2.375,0,0,1,12,21ZM5,10c.4,4,5.2,7,6.9,8,3.2-1.9,6.7-4.9,7-8V9.8a1.268,1.268,0,0,0,.1-.6A3.159,3.159,0,0,0,15.8,6a3.338,3.338,0,0,0-2.5,1.2,1.708,1.708,0,0,1-2.6,0A3.034,3.034,0,0,0,8.2,6,3.159,3.159,0,0,0,5,9.2V10Zm5.9-4.6Z" fill="#ffc114"/>
  </g>
</svg>
