<svg id="_24_question_light" data-name="24_question light" xmlns="http://www.w3.org/2000/svg" width="24" height="24" viewBox="0 0 24 24">
  <g id="Сгруппировать_545" data-name="Сгруппировать 545">
    <rect id="Прямоугольник_674" data-name="Прямоугольник 674" width="10.3" height="10.3" transform="translate(12 1.7)" fill="none"/>
  </g>
  <g id="Сгруппировать_546" data-name="Сгруппировать 546">
    <rect id="Прямоугольник_675" data-name="Прямоугольник 675" width="24" height="24" fill="none"/>
  </g>
  <g id="Сгруппировать_547" data-name="Сгруппировать 547">
    <rect id="Прямоугольник_676" data-name="Прямоугольник 676" width="20.6" height="20.6" transform="translate(1.7 1.7)" fill="none"/>
  </g>
  <g id="Сгруппировать_548" data-name="Сгруппировать 548">
    <path id="Контур_577" data-name="Контур 577" d="M15.2,21.1a.875.875,0,0,1-.9-.6,1.04,1.04,0,0,1,.6-1.3A7.689,7.689,0,0,0,19.8,12a7.768,7.768,0,0,0-7.7-7.7A7.768,7.768,0,0,0,4.4,12a7.689,7.689,0,0,0,4.9,7.2,1.04,1.04,0,0,1,.6,1.3,1.282,1.282,0,0,1-1.5.5,9.753,9.753,0,0,1-6.2-9,9.774,9.774,0,0,1,9.7-9.7A9.774,9.774,0,0,1,21.6,12a9.51,9.51,0,0,1-6.2,9C15.4,21.1,15.3,21.1,15.2,21.1Z" fill="#8484b7"/>
  </g>
  <g id="Сгруппировать_549" data-name="Сгруппировать 549">
    <path id="Контур_578" data-name="Контур 578" d="M8.8,10.9" fill="none" stroke="#25215a" stroke-linecap="round" stroke-linejoin="round" stroke-miterlimit="10" stroke-width="2.115"/>
  </g>
  <g id="Сгруппировать_550" data-name="Сгруппировать 550">
    <path id="Контур_579" data-name="Контур 579" d="M12,17.9a.945.945,0,0,1-1-1v-1a3.625,3.625,0,0,1,1.9-3.1,2.151,2.151,0,0,0,1.2-2.4,2.129,2.129,0,0,0-1.7-1.7,2.273,2.273,0,0,0-1.8.5,2.136,2.136,0,0,0-.8,1.7.945.945,0,0,1-1,1,.945.945,0,0,1-1-1A4.073,4.073,0,0,1,9.3,7.7a4.147,4.147,0,0,1,3.4-.9,4.264,4.264,0,0,1,3.4,3.4,4.159,4.159,0,0,1-2.3,4.5,1.3,1.3,0,0,0-.8,1.2v1A.945.945,0,0,1,12,17.9Z" fill="#8484b7"/>
  </g>
  <g id="Сгруппировать_551" data-name="Сгруппировать 551">
    <path id="Контур_580" data-name="Контур 580" d="M12,21.4a1,1,0,0,1,0-2h0a1,1,0,1,1,0,2Z" fill="#8484b7"/>
  </g>
</svg>
