<svg id="_28_FB_diactive" data-name="28_FB_diactive" xmlns="http://www.w3.org/2000/svg" width="28" height="28" viewBox="0 0 28 28">
  <g id="Сгруппировать_399" data-name="Сгруппировать 399">
    <rect id="Прямоугольник_553" data-name="Прямоугольник 553" width="28" height="28" fill="none"/>
    <rect id="Прямоугольник_554" data-name="Прямоугольник 554" width="24" height="24" transform="translate(2 2)" fill="none"/>
  </g>
  <g id="Сгруппировать_409" data-name="Сгруппировать 409">
    <g id="Сгруппировать_400" data-name="Сгруппировать 400">
      <rect id="Прямоугольник_555" data-name="Прямоугольник 555" width="28" height="28" fill="none"/>
    </g>
    <g id="Сгруппировать_401" data-name="Сгруппировать 401">
      <rect id="Прямоугольник_556" data-name="Прямоугольник 556" width="24" height="24" transform="translate(2 2)" fill="none"/>
    </g>
    <g id="Сгруппировать_408" data-name="Сгруппировать 408">
      <g id="Сгруппировать_402" data-name="Сгруппировать 402">
        <path id="Контур_533" data-name="Контур 533" d="M14,25.6A11.6,11.6,0,1,1,25.6,14,11.608,11.608,0,0,1,14,25.6ZM14,5.4A8.6,8.6,0,1,0,22.6,14,8.6,8.6,0,0,0,14,5.4Z" fill="#fff"/>
      </g>
      <g id="Сгруппировать_407" data-name="Сгруппировать 407">
        <g id="Сгруппировать_404" data-name="Сгруппировать 404">
          <g id="Сгруппировать_403" data-name="Сгруппировать 403">
            <path id="Контур_534" data-name="Контур 534" d="M15.4,19.8h-3V11.1a2.9,2.9,0,0,1,2.9-2.9h2.5v3H16.2a.684.684,0,0,0-.7.7v7.9Z" fill="#fff"/>
          </g>
        </g>
        <g id="Сгруппировать_406" data-name="Сгруппировать 406">
          <g id="Сгруппировать_405" data-name="Сгруппировать 405">
            <path id="Контур_535" data-name="Контур 535" d="M17.1,15.5H10.8v-3h6.8Z" fill="#fff"/>
          </g>
        </g>
      </g>
    </g>
  </g>
</svg>
