<svg id="_28_instagram_diactive" data-name="28_instagram_diactive" xmlns="http://www.w3.org/2000/svg" width="28" height="28" viewBox="0 0 28 28">
  <rect id="Прямоугольник_557" data-name="Прямоугольник 557" width="28" height="28" fill="none"/>
  <rect id="Прямоугольник_558" data-name="Прямоугольник 558" width="24" height="24" transform="translate(2 2)" fill="none"/>
  <g id="Сгруппировать_413" data-name="Сгруппировать 413">
    <g id="Сгруппировать_410" data-name="Сгруппировать 410">
      <path id="Контур_536" data-name="Контур 536" d="M19.2,25.6H8.8a6.445,6.445,0,0,1-6.4-6.4V8.8A6.445,6.445,0,0,1,8.8,2.4H19.2a6.445,6.445,0,0,1,6.4,6.4V19.2A6.445,6.445,0,0,1,19.2,25.6ZM8.8,5.4A3.372,3.372,0,0,0,5.4,8.8V19.2a3.372,3.372,0,0,0,3.4,3.4H19.2a3.372,3.372,0,0,0,3.4-3.4V8.8a3.372,3.372,0,0,0-3.4-3.4Z" fill="#fff"/>
    </g>
    <g id="Сгруппировать_411" data-name="Сгруппировать 411">
      <path id="Контур_537" data-name="Контур 537" d="M14,20.3A6.3,6.3,0,1,1,20.3,14,6.4,6.4,0,0,1,14,20.3Zm0-9.6A3.3,3.3,0,1,0,17.3,14,3.329,3.329,0,0,0,14,10.7Z" fill="#fff"/>
    </g>
    <g id="Сгруппировать_412" data-name="Сгруппировать 412">
      <path id="Контур_538" data-name="Контур 538" d="M19.8,6.7A1.3,1.3,0,1,0,21.1,8a1.324,1.324,0,0,0-1.3-1.3Z" fill="#fff"/>
    </g>
  </g>
</svg>
