<svg id="_32_Best_Seller" data-name="32_Best Seller" xmlns="http://www.w3.org/2000/svg" width="32" height="32" viewBox="0 0 32 32">
  <g id="Сгруппировать_571" data-name="Сгруппировать 571">
    <rect id="Прямоугольник_691" data-name="Прямоугольник 691" width="32" height="32" fill="none"/>
  </g>
  <g id="Сгруппировать_572" data-name="Сгруппировать 572">
    <rect id="Прямоугольник_692" data-name="Прямоугольник 692" width="27.4" height="27.4" transform="translate(2.3 2.3)" fill="none"/>
  </g>
  <g id="Сгруппировать_573" data-name="Сгруппировать 573">
    <path id="Контур_589" data-name="Контур 589" d="M7.2,29.2a3.079,3.079,0,0,1-1.3-.3,2.3,2.3,0,0,1-1.3-2V6.3A3.591,3.591,0,0,1,8.4,3H23.5a3.591,3.591,0,0,1,3.8,3.3V26.9a2.3,2.3,0,0,1-1.3,2,2.758,2.758,0,0,1-2.9-.2l-6.3-4.6a1.654,1.654,0,0,0-1.9,0L8.6,28.7A1.978,1.978,0,0,1,7.2,29.2ZM8.4,5.6c-.7,0-1.2.4-1.2.7V26.6h0L13.5,22a4.377,4.377,0,0,1,4.9,0l6.3,4.6h0V6.3c0-.3-.5-.7-1.2-.7H8.4Z" fill="#fff"/>
  </g>
  <g id="Сгруппировать_574" data-name="Сгруппировать 574">
    <path id="Контур_590" data-name="Контур 590" d="M16.4,7.9l1.8,2.7,3.1.9a.668.668,0,0,1,.3,1.1l-2,2.6.1,3.3a.737.737,0,0,1-.9.7l-3.1-1.1-2.9.9c-.4.2-.9-.2-.9-.7L12,15l-2-2.6a.732.732,0,0,1,.3-1.1l3.1-.9,1.8-2.7C15.6,7.5,16.2,7.5,16.4,7.9Z" fill="#ffc20e"/>
  </g>
</svg>
