<svg id="_32_Entrance_shop_blue" data-name="32_Entrance shop blue" xmlns="http://www.w3.org/2000/svg" width="32" height="32" viewBox="0 0 32 32">
  <g id="Сгруппировать_612" data-name="Сгруппировать 612">
    <rect id="Прямоугольник_703" data-name="Прямоугольник 703" width="32" height="32" fill="none"/>
  </g>
  <g id="Сгруппировать_613" data-name="Сгруппировать 613">
    <rect id="Прямоугольник_704" data-name="Прямоугольник 704" width="27.4" height="27.4" transform="translate(2.3 2.3)" fill="none"/>
  </g>
  <g id="Сгруппировать_621" data-name="Сгруппировать 621">
    <g id="Сгруппировать_614" data-name="Сгруппировать 614">
      <path id="Контур_612" data-name="Контур 612" d="M12.8,29.2H9a4.439,4.439,0,0,1-4.4-4.4v-3a.945.945,0,0,1,1-1,.945.945,0,0,1,1,1v3A2.433,2.433,0,0,0,9,27.2h3.9a.945.945,0,0,1,1,1A1.028,1.028,0,0,1,12.8,29.2Z" fill="#3e5cf2"/>
    </g>
    <g id="Сгруппировать_615" data-name="Сгруппировать 615">
      <path id="Контур_613" data-name="Контур 613" d="M5.6,11.2a.945.945,0,0,1-1-1v-3A4.439,4.439,0,0,1,9,2.8h3.9a.945.945,0,0,1,1,1,.945.945,0,0,1-1,1H9A2.433,2.433,0,0,0,6.6,7.2v3A1.075,1.075,0,0,1,5.6,11.2Z" fill="#3e5cf2"/>
    </g>
    <g id="Сгруппировать_616" data-name="Сгруппировать 616">
      <path id="Контур_614" data-name="Контур 614" d="M18.8,29.2a4.439,4.439,0,0,1-4.4-4.4V7.2a4.439,4.439,0,0,1,4.4-4.4h.1l4.4.6a4.838,4.838,0,0,1,4.1,4.8V23.5a4.838,4.838,0,0,1-4.1,4.8l-4.4.6C18.9,29.2,18.8,29.2,18.8,29.2ZM18.7,4.8a2.348,2.348,0,0,0-2.3,2.4V24.8a2.414,2.414,0,0,0,2.3,2.4l4.3-.6a2.833,2.833,0,0,0,2.4-2.9V8.3A2.987,2.987,0,0,0,23,5.4Z" fill="#3e5cf2"/>
    </g>
    <g id="Сгруппировать_617" data-name="Сгруппировать 617">
      <path id="Контур_615" data-name="Контур 615" d="M19.4,17.4a.945.945,0,0,1-1-1v-.7a1,1,0,0,1,2,0v.7A1,1,0,0,1,19.4,17.4Z" fill="#3e5cf2"/>
    </g>
    <g id="Сгруппировать_618" data-name="Сгруппировать 618">
      <path id="Контур_616" data-name="Контур 616" d="M11.2,16.9H5.6a1,1,0,0,1,0-2h5.6a1,1,0,0,1,0,2Z" fill="#3e5cf2"/>
    </g>
    <g id="Сгруппировать_619" data-name="Сгруппировать 619">
      <path id="Контур_617" data-name="Контур 617" d="M11.2,16.9a.908.908,0,0,1-.7-.3L7.7,13.8a.99.99,0,0,1,1.4-1.4l2.8,2.8a.967.967,0,0,1,0,1.4A.779.779,0,0,1,11.2,16.9Z" fill="#3e5cf2"/>
    </g>
    <g id="Сгруппировать_620" data-name="Сгруппировать 620">
      <path id="Контур_618" data-name="Контур 618" d="M8.4,19.7a.908.908,0,0,1-.7-.3.967.967,0,0,1,0-1.4l2.8-2.8a.99.99,0,0,1,1.4,1.4L9.1,19.4A.908.908,0,0,1,8.4,19.7Z" fill="#3e5cf2"/>
    </g>
  </g>
</svg>
