<svg id="_32_Heart_blue" data-name="32_Heart blue" xmlns="http://www.w3.org/2000/svg" width="32" height="32" viewBox="0 0 32 32">
  <g id="Сгруппировать_628" data-name="Сгруппировать 628">
    <rect id="Прямоугольник_707" data-name="Прямоугольник 707" width="32" height="32" fill="none"/>
  </g>
  <g id="Сгруппировать_629" data-name="Сгруппировать 629">
    <path id="Контур_622" data-name="Контур 622" d="M16,27.1a2.663,2.663,0,0,1-1.2-.3C11.7,25.1,4.3,20.4,3.7,13.5h0a4.869,4.869,0,0,1-.1-1.2A7.341,7.341,0,0,1,10.9,5,7.443,7.443,0,0,1,16,7a7.443,7.443,0,0,1,5.1-2,7.341,7.341,0,0,1,7.3,7.3,4.869,4.869,0,0,1-.1,1.2h0c-.6,6.7-8.6,11.8-11.1,13.3A2.663,2.663,0,0,1,16,27.1ZM5.7,13.4c.6,6.1,7.8,10.4,10,11.6a.3.3,0,0,0,.4,0c2.2-1.3,9.5-5.9,10.1-11.6v-.2a3.751,3.751,0,0,0,.1-1,5.336,5.336,0,0,0-9.5-3.3,1.124,1.124,0,0,1-1.8,0,5.167,5.167,0,0,0-4.2-2,5.335,5.335,0,0,0-5.3,5.3,3.751,3.751,0,0,0,.1,1A.31.31,0,0,1,5.7,13.4Z" fill="#3e5cf2"/>
  </g>
</svg>
