<svg id="_32_Money_back" data-name="32_Money back" xmlns="http://www.w3.org/2000/svg" width="32" height="32" viewBox="0 0 32 32">
  <g id="Сгруппировать_575" data-name="Сгруппировать 575">
    <rect id="Прямоугольник_693" data-name="Прямоугольник 693" width="32" height="32" fill="none"/>
  </g>
  <g id="Сгруппировать_576" data-name="Сгруппировать 576">
    <rect id="Прямоугольник_694" data-name="Прямоугольник 694" width="27.4" height="27.4" transform="translate(2.3 2.3)" fill="none"/>
  </g>
  <g id="Сгруппировать_577" data-name="Сгруппировать 577">
    <path id="Контур_591" data-name="Контур 591" d="M15.8,29.1a2.822,2.822,0,0,1-1.5-.4l-7-3.6a5.215,5.215,0,0,1-2.9-4.7V6.2A3.329,3.329,0,0,1,7.7,2.9H23.9a3.329,3.329,0,0,1,3.3,3.3V20.4a5.215,5.215,0,0,1-2.9,4.7l-7,3.6A2.822,2.822,0,0,1,15.8,29.1ZM7.7,5.5a.684.684,0,0,0-.7.7V20.4a2.672,2.672,0,0,0,1.5,2.4l7,3.6a.854.854,0,0,0,.7,0l7-3.6a2.789,2.789,0,0,0,1.5-2.4V6.2a.684.684,0,0,0-.7-.7Z" fill="#fff"/>
  </g>
  <g id="Сгруппировать_583" data-name="Сгруппировать 583">
    <g id="Сгруппировать_578" data-name="Сгруппировать 578">
      <path id="Контур_592" data-name="Контур 592" d="M15.8,23.4a1.324,1.324,0,0,1-1.3-1.3v-8a1.3,1.3,0,1,1,2.6,0v8A1.324,1.324,0,0,1,15.8,23.4Z" fill="#ffc20e"/>
    </g>
    <g id="Сгруппировать_580" data-name="Сгруппировать 580">
      <g id="Сгруппировать_579" data-name="Сгруппировать 579">
        <path id="Контур_593" data-name="Контур 593" d="M19.8,15.4h-8a1.3,1.3,0,0,1,0-2.6h8a1.3,1.3,0,0,1,0,2.6Z" fill="#ffc20e"/>
      </g>
    </g>
    <g id="Сгруппировать_582" data-name="Сгруппировать 582">
      <g id="Сгруппировать_581" data-name="Сгруппировать 581">
        <path id="Контур_594" data-name="Контур 594" d="M19.8,11.2h-8a1.3,1.3,0,1,1,0-2.6h8a1.3,1.3,0,0,1,0,2.6Z" fill="#ffc20e"/>
      </g>
    </g>
  </g>
</svg>
