<svg id="_32_Message" data-name="32_Message" xmlns="http://www.w3.org/2000/svg" width="32" height="32" viewBox="0 0 32 32">
  <g id="Сгруппировать_622" data-name="Сгруппировать 622">
    <rect id="Прямоугольник_705" data-name="Прямоугольник 705" width="32" height="32" fill="none"/>
  </g>
  <g id="Сгруппировать_623" data-name="Сгруппировать 623">
    <rect id="Прямоугольник_706" data-name="Прямоугольник 706" width="27.4" height="27.4" transform="translate(2.3 2.3)" fill="none"/>
  </g>
  <g id="Сгруппировать_624" data-name="Сгруппировать 624">
    <path id="Контур_619" data-name="Контур 619" d="M9.8,28a.6.6,0,0,1-.4-.1.875.875,0,0,1-.6-.9V23.2H7.4A4.439,4.439,0,0,1,3,18.8V9.6A4.439,4.439,0,0,1,7.4,5.2H24.6A4.439,4.439,0,0,1,29,9.6v9.2a4.439,4.439,0,0,1-4.4,4.4H16.3l-5.9,4.6C10.3,28,10.1,28,9.8,28ZM7.4,7.2A2.433,2.433,0,0,0,5,9.6v9.2a2.433,2.433,0,0,0,2.4,2.4H8.9a2.006,2.006,0,0,1,2,2V25l4.3-3.4a1.922,1.922,0,0,1,1.2-.4h8.3a2.433,2.433,0,0,0,2.4-2.4V9.6a2.433,2.433,0,0,0-2.4-2.4H7.4Z" fill="#3e5cf2"/>
  </g>
  <g id="Сгруппировать_627" data-name="Сгруппировать 627">
    <g id="Сгруппировать_625" data-name="Сгруппировать 625">
      <path id="Контур_620" data-name="Контур 620" d="M16,16a1.05,1.05,0,0,1-.9-.5,1.012,1.012,0,0,1,.4-1.4l7.5-4a1.03,1.03,0,0,1,1,1.8l-7.5,4C16.3,15.9,16.2,16,16,16Z" fill="#3e5cf2"/>
    </g>
    <g id="Сгруппировать_626" data-name="Сгруппировать 626">
      <path id="Контур_621" data-name="Контур 621" d="M16,16a.9.9,0,0,1-.5-.1L8,11.9a1.03,1.03,0,1,1,1-1.8l7.5,4a1.012,1.012,0,0,1,.4,1.4A1.05,1.05,0,0,1,16,16Z" fill="#3e5cf2"/>
    </g>
  </g>
</svg>
