<svg id="_32_other_goods_blue" data-name="32_other goods blue" xmlns="http://www.w3.org/2000/svg" width="32" height="32" viewBox="0 0 32 32">
  <g id="Сгруппировать_630" data-name="Сгруппировать 630">
    <rect id="Прямоугольник_708" data-name="Прямоугольник 708" width="32" height="32" fill="none"/>
  </g>
  <g id="Сгруппировать_631" data-name="Сгруппировать 631">
    <rect id="Прямоугольник_709" data-name="Прямоугольник 709" width="27.4" height="27.4" transform="translate(2.3 2.3)" fill="none"/>
  </g>
  <g id="Сгруппировать_638" data-name="Сгруппировать 638">
    <g id="Сгруппировать_634" data-name="Сгруппировать 634">
      <g id="Сгруппировать_632" data-name="Сгруппировать 632">
        <path id="Контур_623" data-name="Контур 623" d="M10.9,13.6H5.3A2.647,2.647,0,0,1,2.7,11V5.5A2.647,2.647,0,0,1,5.3,2.9h5.6a2.647,2.647,0,0,1,2.6,2.6V11A2.582,2.582,0,0,1,10.9,13.6ZM5.3,4.9a.576.576,0,0,0-.6.6V11a.645.645,0,0,0,.6.6h5.6a.645.645,0,0,0,.6-.6V5.5a.645.645,0,0,0-.6-.6Z" fill="#3e5cf2"/>
      </g>
      <g id="Сгруппировать_633" data-name="Сгруппировать 633">
        <path id="Контур_624" data-name="Контур 624" d="M26.7,13.6H21.1A2.647,2.647,0,0,1,18.5,11V5.5a2.647,2.647,0,0,1,2.6-2.6h5.6a2.647,2.647,0,0,1,2.6,2.6V11A2.582,2.582,0,0,1,26.7,13.6ZM21.1,4.9a.645.645,0,0,0-.6.6V11a.645.645,0,0,0,.6.6h5.6a.645.645,0,0,0,.6-.6V5.5a.645.645,0,0,0-.6-.6Z" fill="#3e5cf2"/>
      </g>
    </g>
    <g id="Сгруппировать_637" data-name="Сгруппировать 637">
      <g id="Сгруппировать_635" data-name="Сгруппировать 635">
        <path id="Контур_625" data-name="Контур 625" d="M10.9,29.1H5.3a2.647,2.647,0,0,1-2.6-2.6V21a2.647,2.647,0,0,1,2.6-2.6h5.6A2.647,2.647,0,0,1,13.5,21v5.6A2.562,2.562,0,0,1,10.9,29.1ZM5.3,20.4a.645.645,0,0,0-.6.6v5.6a.645.645,0,0,0,.6.6h5.6a.645.645,0,0,0,.6-.6V21a.645.645,0,0,0-.6-.6Z" fill="#3e5cf2"/>
      </g>
      <g id="Сгруппировать_636" data-name="Сгруппировать 636">
        <path id="Контур_626" data-name="Контур 626" d="M26.7,29.1H21.1a2.647,2.647,0,0,1-2.6-2.6V21a2.647,2.647,0,0,1,2.6-2.6h5.6A2.647,2.647,0,0,1,29.3,21v5.6A2.562,2.562,0,0,1,26.7,29.1Zm-5.6-8.7a.645.645,0,0,0-.6.6v5.6a.645.645,0,0,0,.6.6h5.6a.645.645,0,0,0,.6-.6V21a.645.645,0,0,0-.6-.6Z" fill="#3e5cf2"/>
      </g>
    </g>
  </g>
</svg>
