<svg id="_28_bag_diactive" data-name="28_bag_diactive" xmlns="http://www.w3.org/2000/svg" width="28" height="28" viewBox="0 0 28 28">
  <g id="Сгруппировать_358" data-name="Сгруппировать 358">
    <circle id="Эллипс_78" data-name="Эллипс 78" cx="8" cy="8" r="8" transform="translate(12)" fill="#f8aba1"/>
  </g>
  <g id="Сгруппировать_359" data-name="Сгруппировать 359">
    <rect id="Прямоугольник_468" data-name="Прямоугольник 468" width="28" height="28" fill="none"/>
  </g>
  <g id="Сгруппировать_360" data-name="Сгруппировать 360">
    <rect id="Прямоугольник_469" data-name="Прямоугольник 469" width="24" height="24" transform="translate(2 2)" fill="none"/>
  </g>
  <g id="Сгруппировать_363" data-name="Сгруппировать 363">
    <g id="Сгруппировать_361" data-name="Сгруппировать 361">
      <path id="Контур_508" data-name="Контур 508" d="M22.4,25.5H5.6A1.606,1.606,0,0,1,4.5,25a1.5,1.5,0,0,1-.4-1.1L4.7,9.8A1.453,1.453,0,0,1,6.2,8.4H21.8a1.453,1.453,0,0,1,1.5,1.4L23.9,24a1.384,1.384,0,0,1-1.5,1.5Zm-15.2-3H20.8l-.4-11.1H7.6Z" fill="#25215a"/>
    </g>
    <g id="Сгруппировать_362" data-name="Сгруппировать 362">
      <path id="Контур_509" data-name="Контур 509" d="M17.7,11.4a1.538,1.538,0,0,1-1.5-1.5V7.4a2,2,0,0,0-4,0V9.9a1.5,1.5,0,0,1-3,0V7.4a5.015,5.015,0,0,1,5-5,4.951,4.951,0,0,1,5,5V9.9A1.538,1.538,0,0,1,17.7,11.4Z" fill="#25215a"/>
    </g>
  </g>
</svg>
