<svg id="_28_eye_diactive" data-name="28_eye_diactive" xmlns="http://www.w3.org/2000/svg" width="28" height="28" viewBox="0 0 28 28">
  <g id="Сгруппировать_368" data-name="Сгруппировать 368">
    <path id="Контур_511" data-name="Контур 511" d="M15.8,2,26,10,14,14.8Z" fill="#ffe79f"/>
  </g>
  <g id="Сгруппировать_369" data-name="Сгруппировать 369">
    <rect id="Прямоугольник_473" data-name="Прямоугольник 473" width="28" height="28" fill="none"/>
  </g>
  <g id="Сгруппировать_370" data-name="Сгруппировать 370">
    <rect id="Прямоугольник_474" data-name="Прямоугольник 474" width="24" height="24" transform="translate(2 2)" fill="none"/>
  </g>
  <g id="Сгруппировать_371" data-name="Сгруппировать 371">
    <path id="Контур_512" data-name="Контур 512" d="M14,23.6A11.393,11.393,0,0,1,2.8,13.9v-.4A11.393,11.393,0,0,1,14,3.7a11.393,11.393,0,0,1,11.2,9.7v.4A11.393,11.393,0,0,1,14,23.6Zm-8.6-10a8.736,8.736,0,0,0,17.2,0,8.736,8.736,0,0,0-17.2,0Z" fill="#25215a"/>
  </g>
  <g id="Сгруппировать_372" data-name="Сгруппировать 372">
    <path id="Контур_513" data-name="Контур 513" d="M14,19.1a5.5,5.5,0,0,1,0-11,1.3,1.3,0,1,1,0,2.6,2.8,2.8,0,1,0,2.8,2.8,1.3,1.3,0,1,1,2.6,0A5.365,5.365,0,0,1,14,19.1Z" fill="#25215a"/>
  </g>
</svg>
