<svg id="_24_Geolocation_diactive" data-name="24_Geolocation_diactive" xmlns="http://www.w3.org/2000/svg" width="24" height="24" viewBox="0 0 24 24">
  <g id="Сгруппировать_379" data-name="Сгруппировать 379">
    <rect id="Прямоугольник_540" data-name="Прямоугольник 540" width="10.3" height="10.3" transform="translate(12 1.7)" fill="none"/>
  </g>
  <g id="Сгруппировать_380" data-name="Сгруппировать 380">
    <rect id="Прямоугольник_541" data-name="Прямоугольник 541" width="24" height="24" fill="none"/>
  </g>
  <g id="Сгруппировать_381" data-name="Сгруппировать 381">
    <rect id="Прямоугольник_542" data-name="Прямоугольник 542" width="20.6" height="20.6" transform="translate(1.7 1.7)" fill="none"/>
  </g>
  <g id="Сгруппировать_384" data-name="Сгруппировать 384">
    <g id="Сгруппировать_382" data-name="Сгруппировать 382">
      <path id="Контур_517" data-name="Контур 517" d="M12,22.1a2.663,2.663,0,0,1-1.2-.3c-1.6-.8-5.4-3.2-7-6.8a8.39,8.39,0,0,1-.7-1.9A14.769,14.769,0,0,1,3,11a9,9,0,0,1,18,0,7.613,7.613,0,0,1-.3,2.1c-.8,4.3-5.5,7.5-7.5,8.6A1.594,1.594,0,0,1,12,22.1Zm.3-3ZM12,4.9a6.018,6.018,0,0,0-6,6,5.9,5.9,0,0,0,.2,1.4h0a5.023,5.023,0,0,0,.5,1.3c1.2,2.6,4.2,4.5,5.4,5.3,2.6-1.5,5.4-4,5.8-6.4v-.1a7.719,7.719,0,0,0,.2-1.5A6.171,6.171,0,0,0,12,4.9Z" fill="#25215a"/>
    </g>
    <g id="Сгруппировать_383" data-name="Сгруппировать 383">
      <path id="Контур_518" data-name="Контур 518" d="M12,15a4.118,4.118,0,0,1-4.1-4.1,4.052,4.052,0,0,1,3-3.9,1.584,1.584,0,0,1,1.9,1,1.584,1.584,0,0,1-1,1.9,1.053,1.053,0,0,0-.8,1A1.11,1.11,0,0,0,12.1,12a.974.974,0,0,0,1-.8,1.518,1.518,0,1,1,2.9.9A4.3,4.3,0,0,1,12,15Z" fill="#25215a"/>
    </g>
  </g>
</svg>
