<svg width="24" height="24" viewBox="0 0 24 24" fill="none" xmlns="http://www.w3.org/2000/svg">
<path d="M15.8 6.5C17.3 6.5 18.5 7.7 18.5 9.2C18.5 9.3 18.5 9.5 18.4 9.7C18.4 9.8 18.4 9.9 18.4 10C18.1 12.8 14.9 15.6 11.9 17.4C10 16.3 5.9 13.5 5.5 10C5.5 9.9 5.5 9.8 5.5 9.7C5.5 9.5 5.4 9.3 5.4 9.2C5.4 7.7 6.6 6.5 8.1 6.5C8.9 6.5 9.7 6.9 10.3 7.6C10.7 8.1 11.3 8.4 11.9 8.4C12.5 8.4 13.1 8.1 13.5 7.6C14.2 6.8 15 6.5 15.8 6.5ZM15.8 4.5C14.3 4.5 12.9 5.2 12.1 6.3C12.1 6.3 12.1 6.3 12 6.3C11.9 6.3 11.9 6.3 11.9 6.3C11 5.2 9.7 4.5 8.2 4.5C5.6 4.5 3.5 6.6 3.5 9.2C3.5 9.5 3.5 9.8 3.6 10.1C4 15 9.6 18.4 11.5 19.5C11.7 19.6 11.8 19.6 12 19.6C12.2 19.6 12.4 19.6 12.5 19.5C14.3 18.5 20 14.8 20.4 10.1C20.4 9.8 20.5 9.5 20.5 9.2C20.5 6.6 18.4 4.5 15.8 4.5Z" fill="#8484B7"/>
</svg>
