<svg id="_28_heart_diactive" data-name="28_heart_diactive" xmlns="http://www.w3.org/2000/svg" width="28" height="28" viewBox="0 0 28 28">
  <g id="Сгруппировать_364" data-name="Сгруппировать 364">
    <rect id="Прямоугольник_470" data-name="Прямоугольник 470" width="12" height="12" transform="translate(14 2)" fill="#f8aba1"/>
  </g>
  <g id="Сгруппировать_365" data-name="Сгруппировать 365">
    <rect id="Прямоугольник_471" data-name="Прямоугольник 471" width="28" height="28" fill="none"/>
  </g>
  <g id="Сгруппировать_366" data-name="Сгруппировать 366">
    <rect id="Прямоугольник_472" data-name="Прямоугольник 472" width="24" height="24" transform="translate(2 2)" fill="none"/>
  </g>
  <g id="Сгруппировать_367" data-name="Сгруппировать 367">
    <path id="Контур_510" data-name="Контур 510" d="M14,24.3a3.079,3.079,0,0,1-1.3-.3c-2.8-1.5-9.5-5.8-10-12.1h0a4.485,4.485,0,0,1-.1-1.1A6.96,6.96,0,0,1,14,5.4a6.96,6.96,0,0,1,11.4,5.4,4.484,4.484,0,0,1-.1,1.1h0c-.5,6-7.2,10.5-10,12.1A2.768,2.768,0,0,1,14,24.3ZM5.6,11.7c.5,4.9,6.3,8.5,8.3,9.6,3.8-2.2,8-5.9,8.4-9.6v-.2c0-.3.1-.5.1-.8a4.012,4.012,0,0,0-4-4,4.175,4.175,0,0,0-3.2,1.6,1.559,1.559,0,0,1-1.2.6,1.612,1.612,0,0,1-1.3-.6A3.934,3.934,0,0,0,9.5,6.8a4.012,4.012,0,0,0-4,4,2.485,2.485,0,0,0,.1.8Zm7.3-5.3Z" fill="#25215a"/>
  </g>
</svg>
