<svg id="_28_burger_diactive" data-name="28_burger_diactive" xmlns="http://www.w3.org/2000/svg" width="28" height="28" viewBox="0 0 28 28">
  <g id="Сгруппировать_344" data-name="Сгруппировать 344">
    <rect id="Прямоугольник_463" data-name="Прямоугольник 463" width="8" height="12" transform="translate(2.465 7.386) rotate(-45)" fill="#ffe79f"/>
  </g>
  <g id="Сгруппировать_345" data-name="Сгруппировать 345">
    <rect id="Прямоугольник_464" data-name="Прямоугольник 464" width="28" height="28" fill="none"/>
  </g>
  <g id="Сгруппировать_346" data-name="Сгруппировать 346">
    <rect id="Прямоугольник_465" data-name="Прямоугольник 465" width="24" height="24" transform="translate(2 2)" fill="none"/>
  </g>
  <g id="Сгруппировать_347" data-name="Сгруппировать 347">
    <path id="Контур_490" data-name="Контур 490" d="M24.3,8.8H3.7A1.538,1.538,0,0,1,2.2,7.3,1.538,1.538,0,0,1,3.7,5.8H24.3a1.538,1.538,0,0,1,1.5,1.5A1.538,1.538,0,0,1,24.3,8.8Z" fill="#25215a"/>
  </g>
  <g id="Сгруппировать_348" data-name="Сгруппировать 348">
    <path id="Контур_491" data-name="Контур 491" d="M19.1,16.1H3.7a1.5,1.5,0,0,1,0-3H19.1a1.538,1.538,0,0,1,1.5,1.5A1.417,1.417,0,0,1,19.1,16.1Z" fill="#25215a"/>
  </g>
  <g id="Сгруппировать_349" data-name="Сгруппировать 349">
    <path id="Контур_492" data-name="Контур 492" d="M14,23.5H3.7a1.5,1.5,0,0,1,0-3H14a1.5,1.5,0,0,1,0,3Z" fill="#25215a"/>
  </g>
</svg>
