<svg id="profile" xmlns="http://www.w3.org/2000/svg" width="28" height="28" viewBox="0 0 28 28">
  <g id="Сгруппировать_352" data-name="Сгруппировать 352">
    <path id="Контур_505" data-name="Контур 505" d="M26,5.8H22.2V2H17.8V5.8H14v4.4h3.8V14h4.4V10.2H26Z" fill="#ffe79f"/>
  </g>
  <g id="Сгруппировать_353" data-name="Сгруппировать 353">
    <rect id="Прямоугольник_466" data-name="Прямоугольник 466" width="28" height="28" fill="none"/>
  </g>
  <g id="Сгруппировать_354" data-name="Сгруппировать 354">
    <rect id="Прямоугольник_467" data-name="Прямоугольник 467" width="24" height="24" transform="translate(2 2)" fill="none"/>
  </g>
  <g id="Сгруппировать_357" data-name="Сгруппировать 357">
    <g id="Сгруппировать_355" data-name="Сгруппировать 355">
      <path id="Контур_506" data-name="Контур 506" d="M14,15.4a6.5,6.5,0,1,1,6.5-6.5A6.487,6.487,0,0,1,14,15.4Zm0-9.9A3.478,3.478,0,0,0,10.5,9,3.418,3.418,0,0,0,14,12.5,3.418,3.418,0,0,0,17.5,9,3.478,3.478,0,0,0,14,5.5Z" fill="#25215a"/>
    </g>
    <g id="Сгруппировать_356" data-name="Сгруппировать 356">
      <path id="Контур_507" data-name="Контур 507" d="M21.6,25.5H6.4a1.213,1.213,0,0,1-1.2-.7,1.392,1.392,0,0,1-.1-1.4c1.7-4.3,5.2-7,9-7s7.3,2.7,9,7a1.691,1.691,0,0,1-.1,1.4A1.746,1.746,0,0,1,21.6,25.5Zm-12.7-3H19.1A6.479,6.479,0,0,0,14,19.4,6.479,6.479,0,0,0,8.9,22.5Z" fill="#25215a"/>
    </g>
  </g>
</svg>
