<svg width="20" height="20" viewBox="0 0 20 20" fill="none" xmlns="http://www.w3.org/2000/svg">
<path d="M19.4624 19.348L19.4702 19.3566L19.4785 19.3648C19.4919 19.378 19.5 19.3963 19.5 19.4184C19.5 19.4406 19.4919 19.4589 19.4785 19.4721L19.4785 19.472L19.4719 19.4788C19.4607 19.4903 19.4412 19.5 19.4161 19.5C19.4093 19.5 19.3985 19.4985 19.3859 19.4933C19.3736 19.4883 19.3625 19.4809 19.3536 19.4721L19.3513 19.4698L14.7352 14.9649L14.4073 14.6449L14.06 14.9436C12.6643 16.1437 10.7361 16.9815 8.77193 16.9815C4.42001 16.9815 0.5 13.1369 0.5 8.85548C0.5 6.7245 1.48253 4.63227 3.03311 3.06727C4.58336 1.5026 6.66655 0.5 8.82353 0.5C13.1551 0.5 17.0439 4.5493 17.0439 8.85548C17.0439 10.7941 16.2755 12.5353 15.0632 13.9131L14.7658 14.2511L15.0709 14.5822L19.4624 19.348ZM8.72649 1.23454C4.48607 1.23454 1.02311 4.64494 1.02311 8.85548C1.02311 13.0656 4.48567 16.4807 8.72649 16.4807C12.9721 16.4807 16.4299 13.0609 16.4299 8.85548C16.4299 4.64964 12.9717 1.23454 8.72649 1.23454Z" fill="#6E7191" stroke="#9E9EA6"/>
</svg>
