<svg id="_24_search_diactive" data-name="24_search_diactive" xmlns="http://www.w3.org/2000/svg" width="24" height="24" viewBox="0 0 24 24">
  <rect id="Прямоугольник_503" data-name="Прямоугольник 503" width="24" height="24" fill="none"/>
  <rect id="Прямоугольник_504" data-name="Прямоугольник 504" width="20.57" height="20.57" transform="translate(1.71 1.71)" fill="none"/>
  <path id="Контур_515" data-name="Контур 515" d="M11.87,20.61a8.74,8.74,0,1,1,8.74-8.74A8.74,8.74,0,0,1,11.87,20.61Zm0-14.48a5.74,5.74,0,1,0,5.74,5.74,5.74,5.74,0,0,0-5.74-5.74Z" fill="#8484b7"/>
  <path id="Контур_516" data-name="Контур 516" d="M20.66,22.16a1.5,1.5,0,0,1-1.06-.44l-3.66-3.66a1.5,1.5,0,0,1,2.12-2.12l3.66,3.66a1.5,1.5,0,0,1-1.06,2.56Z" fill="#8484b7"/>
</svg>
