<svg width="24" height="24" viewBox="0 0 24 24" fill="none" xmlns="http://www.w3.org/2000/svg">
<path d="M8 5L7.46967 4.46967L8 3.93934L8.53033 4.46967L8 5ZM8.75 19C8.75 19.4142 8.41421 19.75 8 19.75C7.58579 19.75 7.25 19.4142 7.25 19L8.75 19ZM3.46967 8.46967L7.46967 4.46967L8.53033 5.53033L4.53033 9.53033L3.46967 8.46967ZM8.53033 4.46967L12.5303 8.46967L11.4697 9.53033L7.46967 5.53033L8.53033 4.46967ZM8.75 5L8.75 19L7.25 19L7.25 5L8.75 5Z" fill="#8484B7"/>
<path d="M16 19L15.4697 19.5303L16 20.0607L16.5303 19.5303L16 19ZM16.75 5C16.75 4.58579 16.4142 4.25 16 4.25C15.5858 4.25 15.25 4.58579 15.25 5L16.75 5ZM11.4697 15.5303L15.4697 19.5303L16.5303 18.4697L12.5303 14.4697L11.4697 15.5303ZM16.5303 19.5303L20.5303 15.5303L19.4697 14.4697L15.4697 18.4697L16.5303 19.5303ZM16.75 19L16.75 5L15.25 5L15.25 19L16.75 19Z" fill="#8484B7"/>
</svg>
