<svg width="40" height="38" viewBox="0 0 40 38" fill="none" xmlns="http://www.w3.org/2000/svg">
<path d="M19.8001 3.70001L25.2001 11.6C25.6001 12.2 26.2001 12.6 26.8001 12.8L36.0001 15.5L30.2001 23.1C29.8001 23.6 29.6001 24.3 29.6001 25L29.9001 34.5L20.9001 31.3C20.6001 31.2 20.2001 31.1 19.9001 31.1C19.6001 31.1 19.2001 31.2 18.9001 31.3L9.90008 34.5L10.2001 25C10.2001 24.3 10.0001 23.6 9.60008 23.1L3.80008 15.5L13.0001 12.8C13.7001 12.6 14.2001 12.2 14.6001 11.6L19.8001 3.70001ZM19.8001 0.100006C19.1001 0.100006 18.4001 0.400006 18.0001 1.10001L12.0001 9.90001L1.70008 12.9C0.200084 13.3 -0.399918 15.1 0.600082 16.4L7.10008 24.9L6.80008 35.6C6.80008 36.9 7.80008 37.9 9.00008 37.9C9.20008 37.9 9.50008 37.9 9.70008 37.8L19.8001 34.2L29.9001 37.8C30.1001 37.9 30.4001 37.9 30.6001 37.9C31.8001 37.9 32.8001 36.9 32.8001 35.6L32.5001 24.9L39.0001 16.4C39.9001 15.2 39.4001 13.4 37.9001 12.9L27.6001 9.90001L21.6001 1.10001C21.2001 0.500006 20.5001 0.100006 19.8001 0.100006Z" fill="#FFC20E"/>
</svg>
