<svg xmlns="http://www.w3.org/2000/svg" width="13.5" height="12" viewBox="0 0 13.5 12">
  <g id="Многоугольник_1" data-name="Многоугольник 1" fill="none">
    <path d="M5.878,1.549a1,1,0,0,1,1.743,0l5.04,8.96A1,1,0,0,1,11.79,12H1.71a1,1,0,0,1-.872-1.49Z" stroke="none"/>
    <path d="M 6.74999475479126 4.07945728302002 L 3.41969108581543 9.999998092651367 L 10.08030700683594 9.999998092651367 L 6.74999475479126 4.07945728302002 M 6.749999046325684 1.039730072021484 C 7.090210437774658 1.039730072021484 7.430420398712158 1.209643363952637 7.621570587158203 1.549468040466309 L 12.66173076629639 10.50973796844482 C 13.0366907119751 11.17633819580078 12.55498027801514 11.99999809265137 11.79015064239502 11.99999809265137 L 1.709850311279297 11.99999809265137 C 0.9450206756591797 11.99999809265137 0.4633102416992188 11.17633819580078 0.8382701873779297 10.50973796844482 L 5.878420352935791 1.549468040466309 C 6.069575309753418 1.209643363952637 6.409788131713867 1.039730072021484 6.749999046325684 1.039730072021484 Z" stroke="none" fill="#8484b7"/>
  </g>
</svg>
