<svg width="20" height="20" viewBox="0 0 20 20" fill="none" xmlns="http://www.w3.org/2000/svg">
<path d="M10 18C9.60521 17.9904 9.22925 17.8292 8.95001 17.55C8.67077 17.2707 8.50964 16.8948 8.5 16.5V3.5C8.5 3.10218 8.65804 2.72064 8.93934 2.43934C9.22064 2.15804 9.60218 2 10 2C10.3978 2 10.7794 2.15804 11.0607 2.43934C11.342 2.72064 11.5 3.10218 11.5 3.5V16.5C11.4904 16.8948 11.3292 17.2707 11.05 17.55C10.7707 17.8292 10.3948 17.9904 10 18Z" fill="white"/>
<path d="M16.5 11.5H3.5C3.10218 11.5 2.72064 11.342 2.43934 11.0607C2.15804 10.7794 2 10.3978 2 10C2 9.60218 2.15804 9.22064 2.43934 8.93934C2.72064 8.65804 3.10218 8.5 3.5 8.5H16.5C16.8978 8.5 17.2794 8.65804 17.5607 8.93934C17.842 9.22064 18 9.60218 18 10C18 10.3978 17.842 10.7794 17.5607 11.0607C17.2794 11.342 16.8978 11.5 16.5 11.5Z" fill="white"/>
</svg>
